# xmcd
#
# Track frame offsets:
#	150
#	8346
#	22807
#	41219
#	56775
#	72747
#	85695
#	101986
#	118190
#	137794
#	153640
#	168945
#	183221
#	199069
#	213916
#	231389
#	250424
#	264452
#	280374
#
# Disc length: 3961 seconds
#
# Revision: 1
# Processed by: cddbd v1.5.2PL0 Copyright (c) Steve Scherf et al.
# Submitted via: audiograbber 1.83.01
#
DISCID=160f7713
DTITLE=Taichi - Aussenseiter
DYEAR=2007
DGENRE=hiphop
TTITLE0=Intro
TTITLE1=anders als ihr
TTITLE2=keine wahl feat. vanessa s.
TTITLE3=wein oder wasser feat. ercandize
TTITLE4=realität
TTITLE5=leben in der stadt
TTITLE6=gestern vergessen feat. d-bo
TTITLE7=aussenseiter
TTITLE8=lebenswerk rmx
TTITLE9=erkentnis feat. casper
TTITLE10=mädchen nr.1
TTITLE11=ich denk an dich pt. II feat. kobra and vanessa s.
TTITLE12=brief
TTITLE13=augenblick feat. bahar
TTITLE14=kämpferherz feat. jaime
TTITLE15=schliess die augen
TTITLE16=meilenstein (outro)
TTITLE17=zwei weltern feat. mok (bonus)
TTITLE18=anders als ihr (bonus)
EXTD=
EXTT0=
EXTT1=
EXTT2=
EXTT3=
EXTT4=
EXTT5=
EXTT6=
EXTT7=
EXTT8=
EXTT9=
EXTT10=
EXTT11=
EXTT12=
EXTT13=
EXTT14=
EXTT15=
EXTT16=
EXTT17=
EXTT18=
PLAYORDER=
